<svg xmlns="http://www.w3.org/2000/svg" xmlns:xlink="http://www.w3.org/1999/xlink" version="1.1" x="0px" y="0px" viewBox="12 46.5 76 7" enable-background="new 0 0 100 100" xml:space="preserve"><g><path d="M84.976,48.738c0.173-1.002-0.671-1.78-0.768-1.866c-0.206-0.182-0.522-0.162-0.706,0.044   c-0.183,0.207-0.163,0.523,0.044,0.706c0.005,0.005,0.523,0.485,0.444,0.946c-0.057,0.328-0.444,0.657-1.093,0.931H17.102   c-0.647-0.272-1.034-0.601-1.092-0.928c-0.082-0.46,0.438-0.944,0.445-0.951c0.206-0.183,0.225-0.497,0.042-0.704   c-0.183-0.206-0.499-0.226-0.706-0.044c-0.097,0.086-0.941,0.864-0.768,1.866c0.084,0.488,0.407,0.906,0.928,1.261   c-0.52,0.355-0.843,0.774-0.928,1.262c-0.173,1.002,0.671,1.78,0.768,1.866c0.095,0.084,0.212,0.125,0.33,0.125   c0.138,0,0.275-0.058,0.374-0.168c0.183-0.205,0.165-0.521-0.04-0.705c-0.005-0.005-0.527-0.49-0.445-0.951   c0.059-0.327,0.445-0.655,1.092-0.929h65.796c0.647,0.273,1.034,0.602,1.092,0.929c0.082,0.459-0.437,0.943-0.445,0.951   c-0.206,0.183-0.225,0.497-0.042,0.704c0.099,0.111,0.237,0.169,0.375,0.169c0.118,0,0.236-0.041,0.331-0.125   c0.097-0.086,0.941-0.864,0.768-1.866c-0.084-0.488-0.407-0.906-0.928-1.261C84.569,49.644,84.892,49.226,84.976,48.738z"/><path d="M13.422,49.028c-0.536,0-0.971,0.435-0.971,0.971s0.435,0.971,0.971,0.971s0.971-0.435,0.971-0.971   S13.958,49.028,13.422,49.028z"/><path d="M86.578,49.028c-0.536,0-0.971,0.435-0.971,0.971s0.435,0.971,0.971,0.971s0.971-0.435,0.971-0.971   S87.114,49.028,86.578,49.028z"/></g></svg>