<svg xmlns="http://www.w3.org/2000/svg" fill="currentColor" xmlns:xlink="http://www.w3.org/1999/xlink" version="1.1" x="0px" y="0px" viewBox="13 46.5 74 7" style="enable-background:new 0 0 100 100;" xml:space="preserve"><path d="M50.40582,49.34711c-0.16241-0.07526-0.48737-0.00085-0.59003,0.05304c-0.03424,0.01453-0.05133,0.04102-0.05133,0.07098  c-0.01715,0.0094-0.0257,0.02051-0.03418,0.03333c-0.01709,0.03253-0.01709,0.13086-0.00854,0.15564l0.16241,0.2215  c0.10266,0.06927,0.24805,0.08728,0.37634,0.05219c0.14532-0.03845,0.25653-0.13855,0.29077-0.28137  C50.57697,49.48822,50.50848,49.39587,50.40582,49.34711z M50.20062,49.7251c-0.06842,0.02057-0.14545,0.02142-0.19672-0.01367  l-0.09406-0.11627v-0.01117c0.05981-0.02734,0.19672-0.05981,0.30786-0.05725c0.05981,0.00171,0.1283,0.00854,0.11121,0.08295  C50.32031,49.6712,50.2605,49.7063,50.20062,49.7251z"/><path d="M34.60193,49.50317v-0.00214c-0.00861,0.00085-0.00861,0.00342-0.01715,0.00684c0-0.00024,0.00385-0.00024,0.00513-0.00049  C34.59399,49.50623,34.59875,49.50507,34.60193,49.50317z"/><path d="M34.61902,49.48309c0.00854-0.01453-0.00854,0.00769-0.01709,0.01794l0.00854-0.00085  C34.61902,49.49591,34.61902,49.49078,34.61902,49.48309z"/><polygon points="34.58478,49.50787 34.57623,49.51044 34.56769,49.513 34.57623,49.51215 "/><path d="M85.79413,49.26379c-0.07697,0.0462-0.11975,0.0932-0.14532,0.14282c-0.07947,0.03418-0.13495,0.10553-0.177,0.19055  c-0.12305-0.1394-0.71381,0.00018-0.7724,0.00104l-2.17987,0.04913c0.18512-0.27637,0.34045-0.57526,0.4035-0.86725  c0.104-0.47443-0.01599-0.92798-0.54401-1.23999c-0.75995-0.44159-1.72003-0.49359-2.68799-0.3056  c-1.39203,0.27118-2.79199,1.04077-3.59198,1.83197c-0.19794,0.19751-0.42584,0.36011-0.638,0.5415l-4.42755-0.0329  c-0.61572,0.00171-1.23999-0.01709-1.86432-0.05042c-0.62427-0.03424-1.24005-0.08295-1.85577-0.14709  c-0.14545-0.01367-0.29071-0.01886-0.42761-0.01801c-0.3335,0.00256-0.65851,0.03253-0.97491,0.0368  c-0.08551,0.00256-0.26508,0.04877-0.39337,0.06158c-0.01709,0.02649-0.03424,0.05554-0.05994,0.08636c0-0.01111,0-0.02307,0-0.0351  c0-0.02136-0.01697-0.03931-0.03412-0.05042l0.02557,0.00256c0.00854,0,0.0257-0.00085,0.03424-0.00085l0.03424-0.00256  c0.08551-0.19586-0.18811-0.27112-0.13684-0.02826c0,0.00769,0,0.01288,0.00854,0.01715c-0.00854-0.00085-0.01709,0-0.0257,0.00085  c-0.0769-0.02142-0.09406,0.03418-0.1026,0.03931c-0.0257,0.01538-0.04266,0.11804,0.1026,0.16589  c0.08551,0.02826,0.41052,0,0.54736,0.00513l1.36829,0.01886c0.61584,0.07184,1.24011,0.12994,1.87292,0.16931  c0.62427,0.03845,1.25708,0.05817,1.88141,0.05988l4.0202,0.04761c-0.57434,0.44653-1.17523,0.85901-1.81873,1.20483  c-0.71191,0.37915-1.44794,0.70074-2.20795,0.97119c-0.79999-0.16321-1.59204-0.37122-2.37604-0.61041  c-1.49084-0.45178-2.95874-1.01825-4.41296-1.59583c-0.06403-0.43903-0.33148-0.80896-0.7132-1.10779  c-0.57788-0.45404-1.39294-0.7301-1.9903-0.8634l-0.25067-0.08551c-0.35913-0.05896-0.69269-0.15564-1.05188-0.21039  c-0.10938-0.01721-0.22705-0.01196-0.34003-0.01953c-0.01379-0.00433-0.0318-0.00854-0.0448-0.01294  c-0.1026-0.03674-0.22235-0.05731-0.3421-0.06842c-0.2309-0.02136-0.4704-0.00769-0.6756-0.03503  c-0.35059-0.04364-0.70978-0.08722-1.06042-0.11206c-0.23938-0.01709-0.48743-0.02478-0.71832-0.02307l-0.32513,0.02954  c-0.01416,0.00049-0.03931,0.00299-0.05115,0.00293c-0.45325-0.00342-0.90656,0.01111-1.3598,0.04364  c-0.45319,0.03247-0.89789,0.0838-1.34259,0.15564c-0.97498,0.15564-2.00116,0.31128-2.99316,0.57129  c-0.30719,0.08008-0.60736,0.1734-0.90314,0.27594c-0.34393-0.12524-0.69507-0.23553-1.05487-0.32935  c-0.99207-0.25995-2.01825-0.41565-2.99323-0.57129c-0.4447-0.07184-0.8894-0.12311-1.34259-0.15564  c-0.45325-0.03247-0.90656-0.047-1.3598-0.04358c-0.12823,0.00085-0.40192-0.0368-0.62427-0.01971  c-0.07056,0.00592-0.13373,0.02075-0.19104,0.0401c-0.14105,0.00446-0.2821-0.00537-0.42511,0.0116  c-0.45325,0.0556-0.90643,0.17444-1.35974,0.27283l-0.47906,0.11377c-0.52667,0.0307-1.04895,0.08002-1.55627,0.17096  c-0.59869,0.10779-1.56506,0.40454-2.2149,0.9151c-0.39038,0.3056-0.65698,0.68689-0.71295,1.1391  c-1.01837,0.38879-2.04242,0.76154-3.07886,1.07562c-0.784,0.2392-1.57611,0.4472-2.3761,0.61041  c-0.75995-0.27039-1.49597-0.59198-2.20789-0.97119c-0.41095-0.22083-0.79926-0.47809-1.18414-0.73932l2.05133-0.02429  c0.62427-0.00171,1.25708-0.02136,1.88135-0.05981c0.63281-0.03937,1.25714-0.09753,1.87292-0.16937l1.36829-0.0188  c0.13684-0.00513,0.46185,0.02307,0.54736-0.00513c0.04266-0.01367,0.05981-0.01965,0.06836-0.02905  c0.04279-0.07269,0.08551-0.10352,0.03424-0.13684c-0.00854-0.00513-0.0257-0.06073-0.1026-0.03937  c-0.00861-0.00085-0.01715-0.00171-0.0257-0.00085c-0.00214,0.00171-0.00629,0.00171-0.00854,0.00299v0.00299  c-0.00604,0-0.00897,0.00067-0.01202,0.00122c-0.00464,0.00134-0.00684,0.00409-0.01367,0.00476l-0.01392,0.00763  c-0.00525,0.00446-0.01166,0.00879-0.01166,0.01465v-0.00085c0.00842-0.00427,0.00842-0.00769,0.00842-0.01202l0.00323-0.00177  c0.00244-0.00208,0.00262-0.00513,0.00537-0.00677c-0.11121,0.01202-0.37628-0.05981-0.47888-0.06323  c-0.31641-0.00433-0.64136-0.03424-0.97491-0.0368c-0.13684-0.00085-0.28217,0.00427-0.42761,0.01794  c-0.61572,0.06415-1.23151,0.11292-1.85577,0.14709c-0.62427,0.03339-1.2486,0.05219-1.86426,0.05048l-2.53387,0.0188  c-0.41907-0.31464-0.82593-0.64551-1.19739-1.01624c-0.79999-0.7912-2.20001-1.56085-3.59198-1.83203  c-0.96802-0.18799-1.92804-0.13599-2.68799,0.3056c-0.52808,0.31201-0.64807,0.76562-0.54407,1.23999  c0.10327,0.47784,0.44122,0.97852,0.78009,1.35651l-1.27393,0.00946l-2.61682-0.05902  c-0.05859-0.00085-0.64935-0.14044-0.7724-0.00104c-0.04205-0.08502-0.09753-0.15637-0.177-0.19049  c-0.02557-0.04962-0.06836-0.09668-0.14526-0.14282c-0.41907-0.23773-0.79541,0.05383-0.91516,0.46094  c-0.1026,0.34723,0.00861,0.76794,0.41058,0.97748c0.27362,0.13428,0.62427-0.10516,0.77814-0.48401  c0.02301-0.0589,0.0307-0.11798,0.04547-0.17792c0.25684-0.00043,0.72168-0.04968,0.77563-0.05048l2.61682,0.04706l1.6521-0.01959  c0.88605,0.77466,1.82513,1.29633,2.83374,1.64191c1.01599,0.34564,2.104,0.51843,3.28809,0.60486  c1.5199,0.10638,3.008-0.02722,4.47198-0.31604c0.38397,0.13922,0.76794,0.26642,1.15192,0.3808  c0.90399,0.26239,1.60004,0.52161,2.33606,0.51764c0.48798-0.00244,0.992-0.12006,1.56793-0.41125  c0.06409-0.02795,0.08801-0.09918,0.06409-0.15839c-0.03204-0.0592-0.104-0.08557-0.16003-0.05756  c-0.552,0.2392-1.01605,0.31519-1.46399,0.30316c-0.71204-0.01837-1.37598-0.26477-2.24805-0.52478  c-0.20801-0.05841-0.40802-0.12-0.60803-0.18561c0.65607-0.1496,1.31201-0.328,1.96008-0.52802  c1.00983-0.31189,2.00812-0.68085,3.00085-1.06641c0.00299,0.05121-0.00739,0.09821,0.0011,0.15112  c0.04279,0.26337,0.2395,0.51306,0.49609,0.71918c0.31641,0.25317,0.74402,0.44556,1.00049,0.54303  c0.69275,0.26001,1.41968,0.43188,2.1637,0.51398c0.73541,0.08215,1.48798,0.07526,2.22345-0.01624  c1.07758-0.13428,2.138-0.43018,3.18127-0.81927c1.08612-0.40363,2.138-0.90735,3.16431-1.41791  c0.49622,0.26666,1.02295,0.46533,1.53894,0.6889c-0.07288,0.0451-0.15027,0.07996-0.22162,0.12915l-0.70978,0.44812  c-0.0257,0.01367-0.31641,0.14624-0.40192,0.22577c-0.09406,0.10266-0.06848,0.18988,0,0.21466  c0.04272,0.03168,0.11121,0.0188,0.13684-0.02905v-0.00171c0.02557,0.04529,0.02557,0.01367,0.01703-0.03168l-0.00854,0.01544  l-0.00848,0.01538c0-0.01453,0-0.02826,0.01703-0.04022v-0.00342c0.07703-0.06244,0.35925-0.09576,0.37634-0.10345l0.7868-0.40625  c0.14099-0.08984,0.28809-0.1593,0.43359-0.23456c0.1792,0.08948,0.35919,0.17767,0.53229,0.28796l0.7868,0.40619  c0.01715,0.00769,0.29932,0.04108,0.37634,0.10352v0.00342c0.01703,0.01196,0.01703,0.02563,0.01703,0.04016l-0.00848-0.01538  l-0.00854-0.01538c-0.00854,0.04535-0.00854,0.07697,0.01703,0.03162v0.00171c0.02563,0.04791,0.09412,0.06073,0.13684,0.02911  c0.06848-0.02484,0.09406-0.11206,0-0.21466c-0.08551-0.07953-0.37622-0.2121-0.40192-0.22577l-0.70978-0.44812  c-0.10541-0.07263-0.21881-0.12671-0.32751-0.19086c0.54907-0.24347,1.11481-0.4491,1.64484-0.73395  c1.02631,0.5105,2.07819,1.01422,3.16431,1.41791c1.04327,0.3891,2.1037,0.685,3.18127,0.81927  c0.73547,0.09149,1.48804,0.09833,2.22351,0.01624c0.74396-0.08209,1.47089-0.25403,2.16364-0.51398  c0.25647-0.09747,0.68408-0.28992,1.00049-0.54303c0.25659-0.20612,0.45331-0.45587,0.49609-0.71924  c0.01086-0.06757-0.00055-0.12823,0.0014-0.19312c1.42914,0.57867,2.87079,1.14508,4.33484,1.59729  c0.64807,0.20001,1.30402,0.37842,1.96008,0.52802c-0.20001,0.06555-0.40002,0.1272-0.60803,0.18561  c-0.87207,0.25995-1.53601,0.50635-2.24805,0.52478c-0.44794,0.01196-0.91199-0.06403-1.46393-0.30322  c-0.05609-0.02802-0.12805-0.00159-0.1601,0.05762c-0.02393,0.0592,0,0.13037,0.06409,0.15839  c0.57599,0.2912,1.07996,0.40881,1.56799,0.41119c0.73602,0.00403,1.43201-0.25519,2.336-0.51758  c0.38397-0.11438,0.76801-0.24158,1.15198-0.3808c1.46393,0.28882,2.95203,0.42236,4.47198,0.31598  c1.18408-0.08636,2.27203-0.25922,3.28809-0.6048c1.03192-0.35358,1.99194-0.88721,2.896-1.69202  c0.12683-0.1142,0.26367-0.26178,0.39917-0.42169l2.47314-0.04449c0.05396,0.00079,0.5188,0.05005,0.77563,0.05048  c0.01477,0.05988,0.02246,0.11896,0.04547,0.17786c0.15387,0.37885,0.50452,0.61829,0.77814,0.48401  c0.40204-0.20947,0.51318-0.63025,0.41058-0.97748C86.58948,49.31769,86.21313,49.02606,85.79413,49.26379z M14.04303,50.10736  c-0.03412,0.05731-0.06836,0.11292-0.1026,0.15735c-0.00854,0.01459-0.02557,0.03937-0.04266,0.05304  c-0.17114-0.08978-0.21381-0.27539-0.17969-0.43103c0.03424-0.1488,0.1283-0.2959,0.27374-0.27362c0,0.00684,0,0.01367,0,0.02051  c0,0.06842,0.03424,0.12915,0.08545,0.16248c0,0.03082,0.00861,0.05731,0.01715,0.0744  c0.00854,0.01624,0.0257,0.02911,0.03424,0.03851C14.11157,49.96973,14.06873,50.05267,14.04303,50.10736z M18.659,48.29022  c-0.07996-0.36798,0.01599-0.72003,0.43201-0.9624c0.70404-0.4104,1.60004-0.44879,2.50403-0.2688  c1.32794,0.26556,2.672,1.01202,3.43195,1.776c0.29669,0.29718,0.62653,0.55322,0.95105,0.81567l-6.41931,0.04767  C19.19525,49.34399,18.77399,48.80945,18.659,48.29022z M25.71497,52.03339c-1.16797-0.08154-2.23193-0.24719-3.22394-0.58319  c-0.88599-0.30048-1.7132-0.74902-2.50275-1.38446l6.38556-0.07562c0.50104,0.37189,1.02649,0.70966,1.57312,1.0105  c0.56,0.30481,1.13605,0.5744,1.72803,0.81201C28.37103,52.03662,27.05096,52.13104,25.71497,52.03339z M63.64203,49.69104  c-1.30359-0.52167-2.5907-1.02533-3.86932-1.48309c0.48871,0.03278,0.9729,0.08276,1.44318,0.16986  c0.54736,0.09924,1.41968,0.36261,2.00116,0.8244C63.39569,49.34467,63.54608,49.50702,63.64203,49.69104z M36.78271,49.25562  c0.58142-0.46179,1.45374-0.72522,2.0011-0.8244c0.46124-0.08545,0.93573-0.13544,1.41479-0.16864  c-1.27075,0.48987-2.55737,1.01276-3.8537,1.51825C36.43927,49.58234,36.5929,49.40698,36.78271,49.25562z M44.65039,50.88562  c-1.00061,0.3703-2.02679,0.66107-3.06152,0.79102c-0.70129,0.08728-1.41107,0.09326-2.10382,0.0163  c-0.70123-0.07611-1.39398-0.23523-2.05243-0.4798c-0.22235-0.08295-0.58154-0.24542-0.86371-0.4635  c-0.15399-0.12146-0.28229-0.25397-0.30786-0.40967c-0.01605-0.09387-0.01038-0.18109-0.00024-0.26678  c0.20752-0.08221,0.41473-0.16394,0.62152-0.24731c0.00494,0.01184,0.00299,0.02264,0.02008,0.03607  c0.01703,0.01367,0.04272,0.01709,0.05981,0.01111c0.00861,0.0556,0.22241,0.06757,0.2395,0.08038  c0.09406,0.03082,0.18811,0.04877,0.28217,0.05731c0.1283,0.01111,0.2652,0.00598,0.39337,0.00598l1.87292,0.04962l5.71265-0.10352  c0.05988,0,0.11115-0.05127,0.11115-0.11542s-0.05127-0.11548-0.11115-0.11548c-0.18817-0.00598-0.38483-0.01453-0.57294-0.01453  c-1.71039-0.00598-3.40363,0.11719-5.13971,0.12488l-1.87292-0.05731l-0.59857-0.04364  c-0.01941-0.00244-0.09357-0.00519-0.16846-0.00616c1.27301-0.5155,2.53436-1.02582,3.78436-1.50403  c0.86273-0.01526,1.73761,0.04236,2.60132,0.18384c1.38544,0.22662,2.74518,0.6499,3.96814,1.25195  C46.54889,50.10651,45.60822,50.53241,44.65039,50.88562z M47.96002,49.42493c-1.33405-0.70978-2.83923-1.20581-4.38715-1.46576  c-0.47168-0.07953-0.94745-0.13025-1.42352-0.16492l0.23193-0.04352c0.07263,0.0423,0.15894,0.04437,0.21704-0.01599  c0.04285-0.0368,0.11975-0.02484,0.20526-0.0257c0.19666-0.00085,0.41046,0.02997,0.52167,0.03082  c0.4447,0.00256,0.8894,0.02222,1.32556,0.05981c0.4447,0.0368,0.88086,0.09326,1.30847,0.16766  c0.96637,0.16589,1.97546,0.33179,2.95038,0.59949c0.17163,0.04755,0.33942,0.10815,0.50909,0.16284  c-0.12646,0.05457-0.25745,0.09924-0.38123,0.15991C48.68689,49.06573,48.31921,49.24536,47.96002,49.42493z M50.0556,50.32935  c-0.03503,0.01752-0.06683,0.0412-0.10156,0.0592c-0.00342-0.00171-0.00653-0.00409-0.00995-0.0058  c-0.48749-0.23859-0.99207-0.43359-1.47101-0.67902c0.2652-0.13171,0.52167-0.26343,0.77826-0.39337  c0.26172-0.13275,0.53424-0.24585,0.81012-0.35095c0.23242,0.09241,0.46497,0.185,0.68689,0.29755  c0.25659,0.13,0.51306,0.26172,0.77826,0.39337C51.04767,49.89581,50.54309,50.09076,50.0556,50.32935z M50.96216,48.83618  c-0.0769-0.03772-0.15887-0.06409-0.23682-0.09937c0.12207-0.03766,0.24176-0.08258,0.36469-0.11664  c0.97491-0.26764,1.98401-0.43353,2.95038-0.59949c0.42761-0.0744,0.86377-0.1308,1.30847-0.1676  c0.31024-0.02673,0.62708-0.03369,0.94293-0.0426l0.51831,0.04663c-0.12756,0.01819-0.25623,0.02722-0.3833,0.04865  c-1.54791,0.25995-3.0531,0.75598-4.38715,1.46582C51.68048,49.19196,51.31281,49.01239,50.96216,48.83618z M63.73865,50.28662  c-0.02557,0.15564-0.15387,0.28821-0.30786,0.40961c-0.28217,0.21808-0.64136,0.38055-0.86371,0.46356  c-0.65845,0.24457-1.3512,0.40363-2.05237,0.47974c-0.69281,0.07697-1.40259,0.07098-2.10388-0.01624  c-1.03473-0.13-2.06091-0.42078-3.06152-0.79108c-0.95782-0.35321-1.8985-0.77905-2.81366-1.21863  c1.22302-0.60205,2.5827-1.02539,3.96814-1.25201c0.86334-0.14142,1.73792-0.19904,2.6004-0.18384  c1.28949,0.44971,2.58942,0.96796,3.90198,1.505c-0.08984-0.0033-0.25439,0.0014-0.28516,0.00525l-0.59857,0.04358l-1.87292,0.05731  c-1.73608-0.00769-3.42932-0.13086-5.13971-0.12488c-0.18811,0-0.38477,0.00861-0.57294,0.01459  c-0.05988,0-0.11115,0.05127-0.11115,0.11542s0.05127,0.11548,0.11115,0.11548l5.71265,0.10345l1.87292-0.04956  c0.12817,0,0.26508,0.00513,0.39337-0.00604c0.09406-0.00854,0.18811-0.02649,0.28217-0.05725  c0.01715-0.01282,0.2309-0.02484,0.2395-0.08038c0.01709,0.00598,0.04279,0.00256,0.05981-0.01117  c0.02917-0.02332,0.0426-0.05072,0.03644-0.07416c0.20166,0.08252,0.40295,0.16083,0.60522,0.24335  C63.75507,50.07544,63.75726,50.17792,63.73865,50.28662z M76.30707,49.27051c0.75995-0.76404,2.104-1.51044,3.43188-1.776  c0.90405-0.18005,1.80005-0.1416,2.50403,0.2688c0.41602,0.24237,0.51202,0.59436,0.43201,0.9624  c-0.07037,0.31799-0.25916,0.64124-0.47656,0.92883l-0.11584,0.00262l-6.17291-0.04584  C76.03876,49.49329,76.18311,49.39465,76.30707,49.27051z M81.651,50.25769c-0.88,0.776-1.80804,1.28882-2.80804,1.62799  c-0.99194,0.336-2.05591,0.50159-3.22388,0.58319c-1.33606,0.0976-2.65607,0.00323-3.96008-0.22076  c0.59198-0.23761,1.16809-0.5072,1.72803-0.81201c0.75562-0.41589,1.45422-0.92322,2.11719-1.47705l6.37085,0.07544  C81.79883,50.11401,81.72174,50.19446,81.651,50.25769z M86.10193,50.26611c-0.01709-0.01715-0.04266-0.05475-0.05981-0.07697  c-0.05988-0.07788-0.15393-0.22839-0.18811-0.32587c0.02557-0.0094,0.04272-0.02478,0.05127-0.04614  c0.00854-0.01715,0.01715-0.04364,0.01715-0.0744c0.05121-0.03339,0.08545-0.09412,0.08545-0.16254c0-0.00684,0-0.01367,0-0.02051  c0.14545-0.02222,0.2395,0.12488,0.27374,0.27368C86.31573,49.98987,86.27307,50.17712,86.10193,50.26611z"/></svg>